<svg width="608" height="426" viewBox="0 0 608 426" fill="none" xmlns="http://www.w3.org/2000/svg">
<path d="M91.2 182.571C124.735 182.571 152 155.281 152 121.714C152 88.1478 124.735 60.8571 91.2 60.8571C57.665 60.8571 30.4 88.1478 30.4 121.714C30.4 155.281 57.665 182.571 91.2 182.571ZM516.8 182.571C550.335 182.571 577.6 155.281 577.6 121.714C577.6 88.1478 550.335 60.8571 516.8 60.8571C483.265 60.8571 456 88.1478 456 121.714C456 155.281 483.265 182.571 516.8 182.571ZM547.2 213H486.4C469.68 213 454.575 219.751 443.555 230.687C481.84 251.701 509.01 289.642 514.9 334.714H577.6C594.415 334.714 608 321.117 608 304.286V273.857C608 240.291 580.735 213 547.2 213ZM304 213C362.805 213 410.4 165.36 410.4 106.5C410.4 47.6397 362.805 0 304 0C245.195 0 197.6 47.6397 197.6 106.5C197.6 165.36 245.195 213 304 213ZM376.96 243.429H369.075C349.315 252.938 327.37 258.643 304 258.643C280.63 258.643 258.78 252.938 238.925 243.429H231.04C170.62 243.429 121.6 292.495 121.6 352.971V380.357C121.6 405.556 142.025 426 167.2 426H440.8C465.975 426 486.4 405.556 486.4 380.357V352.971C486.4 292.495 437.38 243.429 376.96 243.429ZM164.445 230.687C153.425 219.751 138.32 213 121.6 213H60.8C27.265 213 0 240.291 0 273.857V304.286C0 321.117 13.585 334.714 30.4 334.714H93.005C98.99 289.642 126.16 251.701 164.445 230.687Z" fill="#727CF5"/>
</svg>
